<?xml version="1.0" encoding="UTF-8" standalone="no"?>
<svg
   width="200"
   height="200"
   viewBox="0 0 200 200"
   version="1.1"
   id="svg34"
   sodipodi:docname="logo.svg"
   inkscape:version="1.1 (c68e22c387, 2021-05-23)"
   xmlns:inkscape="http://www.inkscape.org/namespaces/inkscape"
   xmlns:sodipodi="http://sodipodi.sourceforge.net/DTD/sodipodi-0.dtd"
   xmlns="http://www.w3.org/2000/svg"
   xmlns:svg="http://www.w3.org/2000/svg">
  <defs
     id="defs38" />
  <sodipodi:namedview
     id="namedview36"
     pagecolor="#ffffff"
     bordercolor="#666666"
     borderopacity="1.0"
     inkscape:pageshadow="2"
     inkscape:pageopacity="0.0"
     inkscape:pagecheckerboard="0"
     showgrid="false"
     inkscape:zoom="0.545"
     inkscape:cx="-481.65138"
     inkscape:cy="140.36697"
     inkscape:window-width="2472"
     inkscape:window-height="1057"
     inkscape:window-x="80"
     inkscape:window-y="-8"
     inkscape:window-maximized="1"
     inkscape:current-layer="g93" />
  <g
     id="g93"
     transform="matrix(0.81033752,0,0,0.7978839,10.75446,-12.199293)">
    <path
       style="fill:#fefefe;stroke-width:0.0946033"
       d="M 1.73539,140.68782 V 30.651013 H 109.20683 216.67826 V 140.68782 250.72461 H 109.20683 1.73539 Z"
       id="path113" />
    <path
       style="fill:#a4cedb;stroke-width:0.0946033"
       d="m 105.5122,250.57608 c -9.168884,-0.51966 -18.402309,-3.97974 -25.254382,-9.4637 -7.249784,-5.80224 -11.925204,-13.87706 -13.465092,-23.25528 -0.568465,-3.46207 -0.55145,-2.92366 -0.587377,-18.58664 l -0.03298,-14.37655 -12.926948,-9.6e-4 c -12.818998,-9.5e-4 -14.867229,-0.041 -17.276315,-0.33881 -7.379144,-0.91193 -13.650111,-3.54393 -19.126505,-8.02763 -1.154907,-0.94555 -3.534347,-3.31351 -4.623852,-4.60152 -4.5902144,-5.42656 -7.9387852,-12.64846 -9.4481939,-20.37702 -0.7689677,-3.93731 -0.9983038,-6.98503 -0.9072108,-12.0562 0.067857,-3.77759 0.2609174,-5.69288 0.9066232,-8.99431 2.3166099,-11.84462 8.4392315,-21.70506 17.1111625,-27.55742 5.025105,-3.391232 10.063982,-5.200481 16.836256,-6.045173 1.107572,-0.138141 2.995184,-0.161974 15.363083,-0.193953 l 14.100365,-0.03648 V 83.534493 c 0,-13.47347 0.02982,-14.857329 0.382929,-17.767387 1.995839,-16.448404 12.498708,-28.58193 28.826974,-33.302599 3.41527,-0.987391 6.414443,-1.471992 10.448833,-1.688305 5.73348,-0.307412 10.35768,0.111996 15.48001,1.404025 7.9033,1.993482 14.91134,5.891458 20.17646,11.222421 5.71928,5.790817 9.26862,13.040421 10.45591,21.356467 0.39981,2.800296 0.42116,3.365686 0.42116,11.150513 v 7.511207 l -0.21925,0.714261 c -1.02188,3.329116 -3.93402,5.344273 -7.18424,4.971401 -1.61283,-0.185028 -2.79426,-0.785813 -4.01125,-2.039801 -0.68596,-0.706837 -0.91797,-1.024327 -1.23082,-1.684336 -0.74289,-1.567331 -0.70833,-1.138543 -0.7788,-9.664102 -0.0679,-8.208032 -0.0587,-8.049657 -0.61719,-10.620943 -0.74673,-3.437684 -2.39553,-6.927197 -4.58896,-9.712065 -1.54407,-1.960414 -4.08979,-4.241506 -6.2965,-5.641999 -7.19282,-4.564928 -16.84672,-6.151325 -25.89475,-4.255209 -5.810869,1.217731 -10.956644,3.888392 -14.733994,7.646949 -4.037095,4.017012 -6.252966,8.654697 -7.041374,14.737166 -0.137725,1.062525 -0.161485,3.198962 -0.212834,19.136835 -0.05484,17.021598 -0.06655,17.967748 -0.228512,18.467048 -0.717926,2.21319 -2.382287,3.91599 -4.548606,4.65367 -0.488802,0.16645 -1.390836,0.17803 -18.098974,0.23256 -15.455401,0.0504 -17.710942,0.0761 -18.628536,0.21114 -3.285171,0.48386 -5.455971,1.14253 -7.972063,2.41891 -7.847886,3.98111 -13.101076,12.45057 -14.477805,23.34187 -0.211797,1.67551 -0.242885,7.24449 -0.0494,8.85078 0.943533,7.83347 3.789103,14.31915 8.291276,18.89762 3.641726,3.70345 7.863895,5.85525 13.287774,6.77206 1.205037,0.20367 1.375878,0.20601 19.034322,0.26108 16.730603,0.0523 17.852632,0.066 18.37958,0.22617 2.42174,0.73616 4.200206,2.57379 4.873936,5.03612 0.160918,0.5881 0.173147,1.61625 0.224786,18.89762 0.03004,10.05161 0.08196,18.36179 0.115398,18.46704 0.03343,0.10527 0.129345,0.64348 0.21314,1.19606 1.838659,12.12491 12.126879,20.57131 26.468086,21.72975 1.90907,0.1542 5.54381,0.0574 7.43602,-0.19795 7.34129,-0.9909 13.44493,-3.79721 17.89978,-8.22991 3.88692,-3.86757 6.02527,-8.16974 6.95385,-13.99049 0.14192,-0.88954 0.16271,-2.75778 0.21277,-19.11803 0.0621,-20.30776 -0.002,-18.56735 0.74749,-20.14152 0.82703,-1.73595 2.31365,-3.00765 4.21228,-3.60335 l 0.69999,-0.21962 17.7716,-0.0539 17.7716,-0.0539 1.29724,-0.21536 c 7.05161,-1.17067 12.56121,-4.81092 16.48747,-10.8934 2.55977,-3.96558 4.26221,-8.91739 4.96143,-14.43111 0.23862,-1.88162 0.23923,-7.36202 0.001,-9.18569 -0.75064,-5.74687 -2.39526,-10.53784 -5.02001,-14.62393 -3.99158,-6.21389 -9.53339,-9.89138 -16.60474,-11.01872 -1.9316,-0.30794 -5.71984,-0.34141 -35.58998,-0.31446 l -29.60375,0.0267 -0.0468,50.23419 c -0.0443,47.58781 -0.0554,50.26445 -0.21138,50.80831 -0.0905,0.31575 -0.33081,0.91855 -0.53391,1.33958 -0.69812,1.44706 -1.62723,2.39766 -3.04286,3.11325 -1.04956,0.53053 -1.77313,0.70323 -2.94635,0.70323 -1.17323,0 -1.89679,-0.1727 -2.94634,-0.70323 -1.77369,-0.89658 -2.98162,-2.40099 -3.57528,-4.45283 -0.15811,-0.54648 -0.16743,-3.16019 -0.19341,-54.30077 -0.0201,-39.4519 9.4e-4,-53.92883 0.0781,-54.48757 0.41123,-2.970436 2.54957,-5.291437 5.38661,-5.846724 0.6072,-0.118845 5.60121,-0.137979 35.79635,-0.137163 22.62728,5.68e-4 35.5724,0.0352 36.44693,0.09744 8.14024,0.579303 15.18173,3.302837 21.04097,8.138347 6.69491,5.52515 11.52267,13.64285 13.84888,23.28638 0.99923,4.14247 1.2996,6.60696 1.37079,11.24769 0.0596,3.89174 -0.0517,6.75967 -0.34369,8.85079 -1.65856,11.87672 -6.91081,21.94628 -14.82486,28.42204 -4.76175,3.89637 -10.51595,6.48988 -16.74273,7.54627 -3.54341,0.60112 -4.35103,0.62773 -19.10051,0.6294 l -13.11427,0.001 -0.0323,14.37655 c -0.0353,15.67047 -0.0168,15.08395 -0.58893,18.60997 -1.63962,10.10501 -6.91009,18.63521 -15.19396,24.59124 -5.50509,3.9581 -12.39656,6.64789 -19.92291,7.776 -1.56219,0.23415 -5.57271,0.47673 -7.62309,0.46107 -0.77165,-0.005 -2.3711,-0.0656 -3.55431,-0.13264 z"
       id="path111" />
    <path
       style="fill:#8fcab3;stroke-width:0.0946033"
       d="m 107.80381,250.66484 c -10.780988,-0.41795 -20.376492,-3.82072 -27.77983,-9.85132 -1.524659,-1.24195 -4.614805,-4.38533 -5.694656,-5.79275 -4.329476,-5.64283 -6.787692,-11.70836 -7.673424,-18.93382 -0.341143,-2.78292 -0.378776,-4.57527 -0.38017,-18.1064 l -0.0013,-13.17869 -0.210454,-0.0497 c -0.115749,-0.0274 -6.545094,-0.0636 -14.287434,-0.0806 -13.727714,-0.0301 -14.115271,-0.0359 -15.620302,-0.23477 -6.131504,-0.81017 -11.08794,-2.53726 -15.699446,-5.47052 -8.842015,-5.62414 -15.1059191,-15.39428 -17.4997182,-27.29518 -0.3503886,-1.74198 -0.7149028,-4.31416 -0.8446035,-5.95994 -0.053917,-0.68414 -0.1457052,-1.81022 -0.2039752,-2.50243 -0.2078735,-2.46934 0.1054199,-7.26144 0.7215565,-11.03687 1.8495908,-11.33353 7.2237209,-21.1688 14.9594964,-27.3776 4.647984,-3.73051 10.23551,-6.24891 16.181513,-7.293306 3.462371,-0.608148 2.588785,-0.578648 18.140281,-0.612569 10.044894,-0.02189 14.247701,-0.06149 14.3342,-0.134889 0.09976,-0.08467 0.122453,-2.591826 0.122763,-13.559736 3.79e-4,-13.400892 0.02723,-14.783473 0.336657,-17.331042 1.693487,-13.943054 9.387621,-24.749502 21.830699,-30.661323 4.614003,-2.192155 10.149394,-3.69529 15.339707,-4.165495 0.64305,-0.05826 1.47605,-0.147174 1.85113,-0.197598 0.88375,-0.118804 5.4222,-0.118804 6.30596,0 0.37506,0.05043 1.20808,0.139343 1.85113,0.197598 6.66444,0.603751 13.6616,2.824193 19.26659,6.113954 3.23116,1.896474 5.75473,3.87105 8.37853,6.555798 2.92822,2.996223 4.83924,5.651869 6.58009,9.144018 2.0765,4.165491 3.25073,8.17301 3.89761,13.302111 0.12017,0.952882 0.16508,2.682097 0.22234,8.561724 0.0395,4.052226 0.0397,7.734978 0,8.183895 -0.31736,3.628361 -3.30717,6.284652 -6.86249,6.097009 -2.75789,-0.145557 -4.97798,-1.877556 -5.91787,-4.616802 l -0.26264,-0.765473 -0.0621,-7.606893 c -0.0342,-4.18379 -0.0893,-7.757594 -0.12243,-7.941785 -0.0333,-0.184193 -0.12536,-0.765475 -0.20476,-1.291737 -1.16081,-7.694781 -5.61142,-14.005154 -12.70702,-18.016879 -6.91689,-3.910692 -16.02692,-5.200763 -24.40059,-3.455371 -4.6699,0.973383 -9.078348,2.928791 -12.487613,5.538995 -5.303387,4.060381 -8.384644,9.322441 -9.481802,16.192679 -0.201846,1.26392 -0.203382,1.380235 -0.257035,19.451516 -0.05073,17.085281 -0.06405,18.214571 -0.221101,18.754101 -0.691974,2.37704 -2.367032,4.09051 -4.689513,4.79704 -0.526923,0.16029 -1.64977,0.17435 -18.37958,0.22995 -9.800103,0.0326 -17.923597,0.0864 -18.052206,0.11949 -0.128611,0.0332 -0.675789,0.12993 -1.215952,0.21511 -3.255935,0.51344 -6.562244,1.811 -9.259941,3.63409 -1.297936,0.87715 -2.244207,1.66532 -3.495514,2.91152 -4.84671,4.82693 -7.894619,11.72607 -8.773741,19.85994 -0.162331,1.50192 -0.163861,6.52632 -0.0025,7.94179 0.509928,4.47089 1.504264,8.10641 3.192774,11.67346 2.952794,6.23795 7.336249,10.55422 13.100896,12.90008 1.753021,0.71337 3.266652,1.12167 5.658853,1.52646 1.205652,0.20401 1.36687,0.2062 19.034323,0.26032 19.825695,0.0606 18.099245,-0.002 19.501997,0.71153 1.715884,0.87316 2.917706,2.4229 3.411876,4.39963 0.186341,0.74537 0.189224,1.00888 0.190047,17.36667 8.42e-4,16.52976 0.03516,18.68813 0.32925,20.69852 0.924254,6.31829 3.902991,11.62183 8.743351,15.56728 10.47516,8.53844 28.088761,9.11522 39.611401,1.29714 6.24354,-4.23622 9.97176,-10.48511 10.75995,-18.03475 0.11218,-1.07453 0.13502,-4.15844 0.13585,-18.34051 9.3e-4,-11.58439 0.0332,-17.28868 0.10123,-17.79725 0.21737,-1.62391 0.76634,-2.73363 1.9576,-3.95718 0.63725,-0.65448 0.95284,-0.89549 1.59009,-1.21418 1.60958,-0.80496 -0.26535,-0.72938 19.6423,-0.79184 17.61274,-0.0552 17.73269,-0.057 18.96779,-0.26318 1.29129,-0.21567 2.84088,-0.57311 3.80826,-0.87845 8.63782,-2.72633 14.82461,-10.1647 17.19575,-20.67443 1.06371,-4.71481 1.20264,-10.06025 0.38938,-14.98134 -1.64745,-9.96866 -6.88478,-17.86215 -14.31175,-21.57013 -3.01347,-1.5045 -5.91111,-2.2607 -9.54054,-2.48981 -0.80977,-0.051 -14.40542,-0.0896 -32.15258,-0.0911 -24.52638,-0.002 -30.75429,0.0217 -30.77293,0.11709 -0.0129,0.0658 -0.0235,22.70348 -0.0235,50.30596 0,47.62323 -0.009,50.21566 -0.1646,50.76045 -0.55776,1.94519 -1.81825,3.52274 -3.48325,4.35938 -1.05278,0.52903 -1.77563,0.70101 -2.94634,0.70101 -1.17072,0 -1.89358,-0.17198 -2.94635,-0.70101 -1.28478,-0.64559 -2.32165,-1.70646 -2.95151,-3.01979 -0.75411,-1.57242 -0.69188,-0.10431 -0.71791,-16.9361 -0.0128,-8.26233 0.0103,-32.69768 0.0507,-54.30078 l 0.0739,-39.27835 0.24916,-0.76547 c 0.58578,-1.799572 1.69306,-3.105944 3.36239,-3.966915 1.49489,-0.771012 -2.17714,-0.702173 38.00121,-0.712442 39.5481,-0.0097 36.47731,-0.05365 40.14655,0.569741 9.38962,1.595413 17.39367,6.592956 23.13268,14.443506 4.28698,5.86433 7.24919,13.4065 8.36154,21.28972 0.46552,3.29912 0.64502,7.93629 0.43706,11.29074 -0.84872,13.68956 -6.69716,25.74254 -15.95625,32.88404 -4.65,3.58655 -10.22186,5.96208 -16.32182,6.95866 -2.95073,0.4821 -2.68346,0.47409 -17.72482,0.5307 l -14.12376,0.0531 -0.0554,14.544 c -0.0385,10.09584 -0.0884,14.80738 -0.16323,15.40515 -0.27798,2.22187 -0.42144,3.16696 -0.68093,4.48619 -2.2607,11.49321 -9.36895,20.77703 -20.13143,26.29288 -5.33493,2.73419 -11.80944,4.51252 -18.01969,4.9494 -1.60628,0.11301 -4.40102,0.18449 -5.51855,0.14116 z"
       id="path109" />
    <path
       style="fill:#4295d1;stroke-width:0.0946033"
       d="m 106.30725,250.53368 c -0.18005,-0.0437 -0.93768,-0.1274 -1.68363,-0.18599 -6.603475,-0.5187 -13.89503,-2.79592 -19.446268,-6.07326 C 75.015362,238.275 68.69925,228.96858 66.891195,217.33084 66.421188,214.3056 66.429011,214.57957 66.373389,199.19869 l -0.05225,-14.44831 -14.170515,-0.0534 c -15.419086,-0.058 -14.928213,-0.0415 -18.283806,-0.62133 -6.379172,-1.10239 -11.930368,-3.60491 -16.802169,-7.57459 -1.605013,-1.30779 -4.253246,-4.01685 -5.545322,-5.67268 -1.040078,-1.33289 -2.7942849,-3.9659 -3.5380136,-5.31048 -3.7989009,-6.8679 -5.7865215,-14.56749 -6.1257378,-23.72967 -0.071123,-1.92101 0.2524359,-6.2248 0.6760698,-8.99266 2.1888112,-14.30081 9.6753716,-25.82241 20.5428766,-31.61491 3.987538,-2.125417 8.182856,-3.406045 13.40903,-4.093163 1.077792,-0.141702 2.830782,-0.163884 15.428093,-0.195197 9.738776,-0.02425 14.249386,-0.06696 14.330469,-0.13579 0.09418,-0.07995 0.124845,-3.003542 0.150269,-14.324934 0.03446,-15.343196 0.0202,-14.864244 0.541803,-18.195367 1.51909,-9.701291 6.152737,-17.983853 13.34025,-23.845454 6.233611,-5.083671 14.466847,-8.398181 23.108574,-9.302977 0.75951,-0.07952 1.84391,-0.19297 2.40979,-0.252108 1.21839,-0.12733 5.55413,-0.07321 7.20218,0.08988 5.41312,0.535721 9.95899,1.614401 14.45112,3.429088 4.01341,1.621296 7.75506,3.825118 11.04771,6.507078 1.43474,1.16863 4.47238,4.235985 5.5232,5.577233 4.56217,5.823012 7.09758,12.195723 7.99441,20.093678 0.2394,2.108387 0.30662,15.91564 0.0831,17.062882 -0.4705,2.414457 -2.26144,4.413952 -4.58399,5.117787 -0.93706,0.283969 -2.38003,0.315893 -3.36843,0.07453 -1.82324,-0.445241 -3.49067,-1.820926 -4.30159,-3.54893 -0.66364,-1.414125 -0.633,-1.005305 -0.70648,-9.424892 -0.0366,-4.18379 -0.0909,-7.714536 -0.12081,-7.846101 -0.03,-0.131567 -0.12254,-0.691319 -0.20581,-1.243896 -0.62053,-4.117986 -2.38722,-8.199707 -4.96948,-11.481369 -3.25486,-4.136435 -8.46524,-7.505644 -14.26332,-9.22313 -12.02744,-3.562724 -25.411981,-0.630773 -33.146149,7.260826 -3.654174,3.728555 -5.814896,8.157432 -6.708693,13.750939 -0.202007,1.264176 -0.203492,1.376573 -0.257163,19.451517 -0.05072,17.07973 -0.06409,18.21472 -0.220981,18.75409 -0.560416,1.9266 -1.790271,3.45268 -3.462747,4.29677 -1.43457,0.72402 0.16689,0.66471 -19.606217,0.72612 -17.544884,0.0545 -17.737246,0.0572 -18.947138,0.26005 -4.438781,0.74438 -8.258205,2.45332 -11.498425,5.1448 -1.046374,0.86915 -3.073825,2.98691 -3.894954,4.06841 -5.303859,6.98571 -7.61748,16.92915 -6.244945,26.83941 0.79757,5.75879 3.096197,11.41882 6.314563,15.54867 0.956261,1.2271 3.037387,3.29958 4.246242,4.22861 3.291764,2.52979 6.651946,3.9499 11.083869,4.6844 l 1.309487,0.21703 17.724836,0.0557 c 16.645332,0.0524 17.759015,0.0661 18.286044,0.22637 1.882769,0.57272 3.375086,1.83123 4.200248,3.54222 0.706953,1.46586 0.648974,-0.17897 0.710357,20.15244 0.05465,18.10351 0.0564,18.23599 0.256631,19.42389 0.961831,5.70639 3.157522,10.06854 6.960203,13.82772 4.54679,4.4948 10.627002,7.25149 18.177822,8.24161 1.63376,0.21423 6.62109,0.2469 8.23106,0.0539 1.61348,-0.19341 3.62265,-0.55915 5.05208,-0.91968 11.38109,-2.87056 19.11847,-10.73726 20.66677,-21.01218 0.0833,-0.55257 0.17784,-1.11233 0.21015,-1.24389 0.0322,-0.13156 0.0851,-8.4202 0.11722,-18.4192 0.0652,-20.27525 0.006,-18.63993 0.71353,-20.1046 0.82522,-1.71109 2.31855,-2.97039 4.20025,-3.54197 0.52673,-0.16 1.65297,-0.1739 18.33281,-0.2265 l 17.77161,-0.0561 1.29723,-0.21523 c 4.36491,-0.72427 8.03752,-2.33639 11.32995,-4.97336 1.06426,-0.85239 3.40106,-3.32356 4.26981,-4.51533 3.19453,-4.38233 5.17102,-9.54853 5.98267,-15.63758 0.2739,-2.05472 0.34592,-6.39667 0.14224,-8.57486 -1.05781,-11.31245 -6.505,-20.41376 -14.68321,-24.53308 -1.7531,-0.88303 -2.88388,-1.31079 -4.69084,-1.77452 -1.76201,-0.45219 -3.09998,-0.65228 -5.13467,-0.76784 -1.73774,-0.0986 -31.25836,-0.10387 -50.84588,-0.008 l -11.92568,0.0578 -0.0468,50.28203 c -0.0442,47.54643 -0.0557,50.31327 -0.21064,50.85614 -0.0901,0.31577 -0.34143,0.94008 -0.55844,1.38742 -0.77717,1.60201 -2.43435,2.95267 -4.18825,3.41355 -0.80654,0.21194 -2.37366,0.21194 -3.18019,0 -1.75813,-0.462 -3.43109,-1.8241 -4.19259,-3.41355 -0.21431,-0.44734 -0.46354,-1.0932 -0.55383,-1.43527 -0.1556,-0.58957 -0.16416,-3.44086 -0.16416,-54.77919 0,-51.74799 0.007,-54.18491 0.16747,-54.77919 0.6575,-2.441986 2.54905,-4.293129 4.93018,-4.824915 0.64433,-0.143904 3.64034,-0.154108 36.75916,-0.125209 l 36.05764,0.03144 1.54332,0.206947 c 2.74321,0.36786 4.46984,0.728304 6.78129,1.415636 8.39812,2.497281 15.43274,8.022691 20.37573,16.004301 4.43883,7.16751 6.91092,16.12967 7.14429,25.90033 0.0256,1.07524 9.4e-4,2.37485 -0.057,2.96623 -0.0564,0.57888 -0.14681,1.61227 -0.20084,2.29641 -0.62617,7.9284 -3.29889,16.02964 -7.32373,22.19875 -3.18259,4.87811 -7.11566,8.7361 -11.80104,11.57573 -3.62493,2.19693 -8.35576,3.91536 -12.76749,4.63769 -3.23054,0.52893 -2.80554,0.5154 -18.00545,0.57324 l -14.12374,0.0538 -0.0564,14.49616 c -0.0383,9.82893 -0.0906,14.78881 -0.16225,15.40515 -0.0581,0.49995 -0.17221,1.40416 -0.25345,2.00938 -2.01271,14.99511 -11.7217,26.399 -26.74641,31.41548 -3.4838,1.16317 -7.01116,1.89463 -11.22418,2.32748 -1.73223,0.17795 -6.95959,0.26796 -7.52955,0.12966 z"
       id="path107" />
    <path
       style="fill:#4196c6;stroke-width:0.0946033"
       d="m 106.30725,250.53368 c -0.18005,-0.0437 -0.93768,-0.1274 -1.68363,-0.18599 -6.603475,-0.5187 -13.89503,-2.79592 -19.446268,-6.07326 C 75.015362,238.275 68.69925,228.96858 66.891195,217.33084 66.421188,214.3056 66.429011,214.57957 66.373389,199.19869 l -0.05225,-14.44831 -4.4429,-0.0235 c -11.52972,-0.0611 -23.449634,-0.20003 -23.627042,-0.27555 -0.177273,-0.0756 0.341837,-0.71448 5.284714,-6.50535 l 5.481298,-6.42169 2.104532,-0.0596 c 1.157492,-0.0327 6.755547,-0.071 12.440123,-0.0849 9.759252,-0.0238 10.369493,-0.0155 10.943566,0.14916 1.888556,0.54178 3.411152,1.81318 4.247015,3.54634 0.706953,1.46586 0.648974,-0.17895 0.710357,20.15244 0.05465,18.10352 0.0564,18.236 0.256632,19.42389 0.96183,5.70639 3.157521,10.06854 6.960202,13.82773 4.54679,4.49479 10.627002,7.25148 18.177824,8.24161 1.63376,0.21424 6.62109,0.24689 8.23105,0.0539 1.61349,-0.1934 3.62266,-0.55915 5.05209,-0.9197 11.38109,-2.87054 19.11847,-10.73724 20.66677,-21.01216 0.0833,-0.55258 0.17784,-1.11233 0.21014,-1.2439 0.0322,-0.13155 0.0851,-8.4202 0.11723,-18.41919 0.0652,-20.27525 0.006,-18.63993 0.71353,-20.1046 0.82522,-1.71111 2.31855,-2.97039 4.20025,-3.54197 0.52673,-0.16 1.65297,-0.17392 18.33281,-0.2265 l 17.7716,-0.056 1.29724,-0.21525 c 4.36491,-0.72425 8.03751,-2.33638 11.32995,-4.97335 1.06425,-0.85238 3.40106,-3.32356 4.26981,-4.51532 3.19452,-4.38233 5.17102,-9.54853 5.98267,-15.63758 0.2739,-2.05472 0.34592,-6.39667 0.14224,-8.57487 -1.05781,-11.31244 -6.505,-20.41375 -14.68321,-24.53307 -1.7531,-0.88304 -2.88388,-1.3108 -4.69084,-1.77453 -1.7819,-0.45729 -3.0994,-0.65208 -5.22726,-0.77283 -2.37553,-0.13481 -62.64208,-0.0789 -62.6935,0.0581 -0.0207,0.0549 -0.0469,22.70338 -0.0582,50.32988 -0.0197,47.54232 -0.0294,50.2607 -0.18466,50.80408 -0.0901,0.31576 -0.34143,0.9401 -0.55843,1.38743 -0.77717,1.60202 -2.43435,2.95266 -4.18825,3.41356 -0.80654,0.21194 -2.37366,0.21194 -3.18019,0 -1.75813,-0.46203 -3.43109,-1.82412 -4.19259,-3.41356 -0.21431,-0.44733 -0.46354,-1.0932 -0.55383,-1.43527 -0.15563,-0.58965 -0.16343,-3.25241 -0.15009,-51.28672 0.008,-27.86563 0.0498,-50.90884 0.0935,-51.20712 l 0.0795,-0.54238 4.85702,-5.68948 4.85702,-5.689478 9.54734,-0.06653 c 5.25103,-0.0366 20.55404,-0.05011 34.00667,-0.03016 24.40004,0.03638 24.46308,0.03691 26.00265,0.242575 2.73555,0.365348 4.46655,0.72649 6.78129,1.414798 8.39812,2.497285 15.43274,8.022685 20.37573,16.004305 4.43883,7.16751 6.91092,16.12966 7.14429,25.90034 0.0256,1.07523 9.4e-4,2.37484 -0.057,2.96621 -0.0564,0.5789 -0.14681,1.61228 -0.20084,2.29642 -0.62617,7.92839 -3.2989,16.02963 -7.32373,22.19874 -3.18259,4.87811 -7.11566,8.7361 -11.80104,11.57574 -3.62492,2.19692 -8.35576,3.91535 -12.76749,4.63769 -3.23054,0.52894 -2.80554,0.5154 -18.00546,0.57324 l -14.12373,0.0537 -0.0564,14.49616 c -0.0383,9.82895 -0.0906,14.78881 -0.16225,15.40516 -0.0581,0.49994 -0.17221,1.40416 -0.25345,2.00937 -2.01271,14.99511 -11.7217,26.399 -26.74641,31.41548 -3.4838,1.16318 -7.01116,1.89462 -11.22418,2.32748 -1.73223,0.17797 -6.95959,0.26798 -7.52955,0.12967 z M 144.87987,88.920699 c -0.8305,-0.115081 -1.30922,-0.262609 -2.05221,-0.632424 -1.56062,-0.776773 -2.68165,-2.111643 -3.32605,-3.960504 l -0.21607,-0.619883 -0.0643,-7.893944 c -0.0383,-4.702955 -0.10319,-8.106678 -0.1605,-8.420209 -0.20579,-1.125516 -0.60112,-0.557874 4.76269,-6.838849 2.67991,-3.138164 4.92124,-5.689337 4.98072,-5.669275 0.14353,0.04841 0.80251,1.617902 1.32767,3.162114 1.1133,3.273673 1.78476,6.919669 2.00317,10.876959 0.0537,0.973584 0.0977,4.51691 0.0977,7.874057 7e-5,6.946049 -0.001,6.963074 -0.71506,8.476378 -0.76381,1.619631 -2.27266,2.921613 -3.96043,3.417444 -0.84037,0.246887 -1.89413,0.336675 -2.67738,0.228136 z"
       id="path105" />
    <path
       style="fill:#4099b5;stroke-width:0.0946033"
       d="m 106.30725,250.53368 c -0.18005,-0.0437 -0.93768,-0.1274 -1.68363,-0.18599 -6.603475,-0.5187 -13.89503,-2.79592 -19.446268,-6.07326 -10.16199,-5.99943 -16.478102,-15.30585 -18.286157,-26.94359 -0.487505,-3.13787 -0.473905,-2.62837 -0.48344,-18.11154 -0.0055,-8.73479 -0.04315,-14.46272 -0.09571,-14.51651 -0.04913,-0.0503 -1.534848,-0.10073 -3.42181,-0.11632 -1.83424,-0.0151 -3.363659,-0.0569 -3.39871,-0.0928 -0.03506,-0.0359 2.410506,-2.96386 5.434571,-6.50651 3.024064,-3.54269 5.503612,-6.45103 5.510102,-6.46299 0.03974,-0.0732 3.452339,-0.0237 3.838543,0.0557 1.239194,0.25471 2.562865,1.03696 3.44826,2.03784 0.632209,0.71466 1.216313,1.84065 1.467284,2.82852 0.18538,0.72968 0.190928,1.12057 0.268651,18.92505 0.07716,17.67357 0.08469,18.21199 0.270547,19.32821 0.936536,5.62457 3.16011,10.03319 6.950156,13.77989 4.546789,4.49479 10.627008,7.25148 18.177821,8.24161 1.63376,0.21423 6.62109,0.24688 8.23105,0.0539 1.61349,-0.1934 3.62266,-0.55917 5.05209,-0.9197 11.38109,-2.87054 19.11847,-10.73724 20.66677,-21.01216 0.0833,-0.55258 0.17784,-1.11233 0.21014,-1.24391 0.0322,-0.13154 0.0851,-8.42019 0.11723,-18.41919 0.0652,-20.27524 0.006,-18.63992 0.71353,-20.1046 0.82522,-1.71109 2.31855,-2.97039 4.20025,-3.54196 0.52673,-0.16 1.65297,-0.17391 18.33281,-0.2265 l 17.7716,-0.0561 1.29724,-0.21525 c 4.36491,-0.72425 8.03751,-2.33637 11.32995,-4.97335 1.06425,-0.85239 3.40106,-3.32355 4.26981,-4.51532 3.19452,-4.38232 5.17102,-9.54852 5.98267,-15.63758 0.2739,-2.05472 0.34592,-6.39667 0.14224,-8.57487 -1.05781,-11.31243 -6.505,-20.41374 -14.68321,-24.53306 -1.7531,-0.88304 -2.88388,-1.31081 -4.69084,-1.77453 -1.76201,-0.45218 -3.09998,-0.65227 -5.13467,-0.76784 -0.9213,-0.0524 -12.1918,-0.0968 -26.57361,-0.10505 -13.73558,-0.007 -25.90257,-0.0409 -27.03777,-0.0736 l -2.06399,-0.0594 5.57095,-6.51899 5.57096,-6.518976 8.79286,-0.06729 c 4.83607,-0.03703 15.3169,-0.04969 23.29074,-0.02822 14.14428,0.03809 14.53552,0.044 16.0412,0.243379 2.72001,0.360208 4.45978,0.722733 6.78129,1.41306 8.39811,2.497277 15.43274,8.022677 20.37573,16.004297 4.43882,7.1675 6.91092,16.12966 7.14428,25.90033 0.0256,1.07523 9.5e-4,2.37485 -0.0568,2.96621 -0.0564,0.5789 -0.14681,1.61229 -0.20085,2.29643 -0.62616,7.92839 -3.29889,16.02963 -7.32373,22.19873 -3.18257,4.87812 -7.11566,8.73611 -11.80103,11.57575 -3.62492,2.19691 -8.35576,3.91536 -12.7675,4.63769 -3.23054,0.52894 -2.80553,0.5154 -18.00545,0.57324 l -14.12373,0.0537 -0.0564,14.49616 c -0.0383,9.82893 -0.0906,14.7888 -0.16225,15.40516 -0.0581,0.49994 -0.17221,1.40416 -0.25345,2.00937 -2.01271,14.99511 -11.72171,26.39899 -26.74641,31.41548 -3.4838,1.16318 -7.01115,1.89461 -11.22418,2.32748 -1.73223,0.17797 -6.95959,0.26798 -7.52955,0.12966 z m 2.01099,-34.16519 c -1.4162,-0.22468 -2.58657,-0.84946 -3.65814,-1.95288 -0.83352,-0.85829 -1.3856,-1.84026 -1.69625,-3.01719 -0.15536,-0.58859 -0.16312,-2.61274 -0.14477,-37.7474 0.0107,-20.41901 0.0527,-37.81945 0.0935,-38.66765 l 0.0742,-1.54218 6.31359,-7.3906 6.31361,-7.39058 0.0785,1.51724 c 0.0431,0.83449 0.0852,21.56071 0.0936,46.05824 0.0142,42.12023 0.006,44.57479 -0.14831,45.16293 -0.47856,1.82124 -1.78232,3.49161 -3.34413,4.2845 -0.43727,0.22199 -1.03767,0.46611 -1.33421,0.54246 -0.72183,0.18589 -1.95141,0.25253 -2.64103,0.14311 z M 144.57712,88.770255 c -0.70773,-0.128734 -2.05151,-0.708388 -2.30406,-0.993878 -0.13062,-0.147637 0.27182,-0.645989 4.78441,-5.924725 3.8931,-4.554078 4.94453,-5.731519 5.01047,-5.610987 0.0464,0.08487 0.0692,1.753696 0.0512,3.76204 l -0.0322,3.609499 -0.25489,0.777962 c -1.00658,3.07223 -4.11789,4.950686 -7.25476,4.380089 z"
       id="path103" />
    <path
       style="fill:#3f9ca5;stroke-width:0.0946033"
       d="m 106.30725,250.53368 c -0.18005,-0.0437 -0.93768,-0.1274 -1.68363,-0.18599 -6.607842,-0.51905 -13.892038,-2.79485 -19.455229,-6.07835 C 76.497369,239.1515 70.634738,231.63766 68.008157,222.2759 66.88591,218.27594 66.459246,214.57977 66.46535,208.91063 l 0.0031,-2.82269 6.380273,-7.46224 6.380274,-7.46225 0.05775,2.9651 c 0.03177,1.63079 0.06333,6.07872 0.07015,9.88425 0.0069,3.84829 0.05695,7.5429 0.112783,8.32453 0.366759,5.1343 1.955365,9.5625 4.817994,13.43007 0.974826,1.31703 3.290216,3.66795 4.622163,4.6931 4.416911,3.39949 9.576931,5.42513 15.947673,6.26053 1.63376,0.21423 6.6211,0.24689 8.23106,0.0539 1.61349,-0.1934 3.62265,-0.55915 5.05209,-0.91969 11.38108,-2.87055 19.11846,-10.73725 20.66676,-21.01217 0.0833,-0.55257 0.17784,-1.11233 0.21016,-1.24389 0.0322,-0.13156 0.0851,-8.4202 0.11721,-18.4192 0.0652,-20.27525 0.006,-18.63993 0.71353,-20.1046 0.82523,-1.71111 2.31855,-2.97039 4.20025,-3.54197 0.52673,-0.16 1.65299,-0.17391 18.33282,-0.2265 l 17.7716,-0.0561 1.29724,-0.21526 c 4.36491,-0.72425 8.03752,-2.33637 11.32996,-4.97334 1.06425,-0.85239 3.40105,-3.32356 4.2698,-4.51533 3.19452,-4.38232 5.17103,-9.54852 5.98268,-15.63757 0.27388,-2.05472 0.3459,-6.39667 0.14223,-8.57488 -1.03832,-11.10401 -6.317,-20.10141 -14.2764,-24.33378 -2.57286,-1.3681 -5.2106,-2.19197 -8.3473,-2.6072 -0.98384,-0.13023 -3.32651,-0.16237 -16.51375,-0.22654 -8.452,-0.0411 -15.38969,-0.0977 -15.41707,-0.12572 -0.0274,-0.028 2.44733,-2.97539 5.49936,-6.54972 l 5.54914,-6.498775 9.21319,-0.06664 c 9.38292,-0.06792 11.25524,-0.02961 13.79637,0.282171 11.30103,1.38662 20.58526,7.408004 26.7361,17.339984 4.43883,7.16752 6.91092,16.12967 7.14429,25.90036 0.0256,1.07522 9.4e-4,2.37483 -0.057,2.96621 -0.0564,0.57888 -0.1468,1.61226 -0.20084,2.29641 -0.62617,7.9284 -3.29889,16.02963 -7.32373,22.19874 -3.18259,4.87812 -7.11566,8.73609 -11.80104,11.57573 -3.62493,2.19694 -8.35576,3.91537 -12.76749,4.63771 -3.23054,0.52893 -2.80554,0.51538 -18.00545,0.57322 l -14.12374,0.0538 -0.0564,14.49615 c -0.0383,9.82894 -0.0906,14.78881 -0.16225,15.40516 -0.0581,0.49994 -0.17221,1.40415 -0.25345,2.00937 -2.01271,14.99511 -11.7217,26.39901 -26.74641,31.4155 -3.4838,1.16316 -7.01116,1.89461 -11.22418,2.32747 -1.73223,0.17796 -6.95959,0.26797 -7.52955,0.12966 z m 2.01099,-34.16519 c -1.4162,-0.22468 -2.58657,-0.84946 -3.65814,-1.95288 -0.59048,-0.60801 -0.84426,-0.95991 -1.14533,-1.58816 -0.78511,-1.63839 -0.71774,0.72154 -0.69368,-24.29756 0.0117,-12.23561 0.0476,-22.89845 0.0795,-23.69521 l 0.0581,-1.44865 6.34034,-7.42243 6.34034,-7.42243 0.0628,2.89081 c 0.0346,1.58996 0.071,15.5929 0.0807,31.11766 0.0169,26.59826 0.009,28.26272 -0.14549,28.84878 -0.47857,1.82124 -1.78233,3.49161 -3.34413,4.2845 -0.43728,0.22199 -1.03767,0.46611 -1.33422,0.54246 -0.72183,0.18589 -1.95141,0.25253 -2.64102,0.14311 z"
       id="path101" />
    <path
       style="fill:#3e9e9b;stroke-width:0.0946033"
       d="m 106.30725,250.53368 c -0.18005,-0.0437 -0.93768,-0.1274 -1.68363,-0.18599 -5.286513,-0.41526 -11.136008,-1.98048 -16.064992,-4.29869 -7.277375,-3.42269 -13.247445,-8.84392 -16.978983,-15.41806 -0.79757,-1.40515 -1.904352,-3.75523 -2.127599,-4.51764 -0.07107,-0.24271 0.250625,-0.64208 4.91639,-6.10361 2.745838,-3.21415 5.025884,-5.84438 5.066769,-5.84494 0.04088,-9.6e-4 0.14756,0.42093 0.237058,0.93666 0.580586,3.34561 1.82962,6.58573 3.561336,9.23844 1.026467,1.5724 1.746287,2.47058 3.052946,3.80948 4.492134,4.60297 10.646795,7.47957 18.243545,8.52676 1.31506,0.18129 1.98598,0.21345 4.53644,0.21745 3.77358,0.005 5.89729,-0.23707 9.07407,-1.03832 12.129,-3.05919 19.95492,-11.64427 20.89855,-22.92584 0.0539,-0.644 0.10992,-8.30348 0.13527,-18.46706 0.0423,-17.00201 0.0472,-17.38204 0.23085,-18.09804 0.59677,-2.32643 2.25806,-4.05497 4.59801,-4.78418 l 0.69999,-0.21814 17.72483,-0.0562 17.72483,-0.0562 1.29724,-0.21469 c 4.35991,-0.72149 8.03704,-2.3354 11.32995,-4.97276 1.06425,-0.85239 3.40106,-3.32356 4.26981,-4.51533 3.19452,-4.38232 5.17102,-9.54852 5.98267,-15.63758 0.2739,-2.05472 0.34592,-6.39666 0.14224,-8.57487 -0.77849,-8.32524 -3.8531,-15.35833 -8.90832,-20.3775 -3.93229,-3.90428 -8.65626,-6.09021 -14.48772,-6.704 -0.56589,-0.0596 -3.37421,-0.13612 -6.24073,-0.17012 l -5.21184,-0.0618 5.51907,-6.45868 5.51909,-6.45868 0.95548,0.02329 c 0.52551,0.01277 1.54475,0.09121 2.26498,0.174314 13.43612,1.549334 24.0765,9.743946 29.78114,22.935716 2.58702,5.9824 4.01763,12.87881 4.19277,20.2116 0.0256,1.07522 9.5e-4,2.37483 -0.0568,2.9662 -0.0564,0.5789 -0.14681,1.61228 -0.20085,2.29642 -0.62616,7.92839 -3.29889,16.02964 -7.32373,22.19875 -3.18257,4.87811 -7.11566,8.73609 -11.80103,11.57573 -3.62492,2.19692 -8.35576,3.91537 -12.7675,4.63771 -3.23054,0.52892 -2.80553,0.51538 -18.00545,0.57322 l -14.12373,0.0538 -0.0564,14.49615 c -0.0383,9.82893 -0.0906,14.78881 -0.16225,15.40515 -0.0581,0.49995 -0.17221,1.40416 -0.25345,2.00937 -2.01271,14.99512 -11.72171,26.399 -26.74641,31.41549 -3.4838,1.16318 -7.01115,1.89462 -11.22418,2.32749 -1.73223,0.17796 -6.95959,0.26797 -7.52955,0.12965 z m 2.19191,-34.16686 c -2.61812,-0.31655 -4.80986,-2.29765 -5.472,-4.94604 -0.17301,-0.69199 -0.18069,-1.15486 -0.18046,-10.8739 0,-5.58313 0.0278,-11.02114 0.0615,-12.08446 l 0.0613,-1.93334 6.33271,-7.4135 6.33273,-7.41351 0.0586,3.74932 c 0.0321,2.06211 0.0669,10.83231 0.0771,19.48935 0.0174,14.61564 0.006,15.7877 -0.14259,16.40719 -0.79112,3.27374 -3.8355,5.41709 -7.12876,5.01889 z"
       id="path99" />
    <path
       style="fill:#3da18a;stroke-width:0.0946033"
       d="m 106.54109,250.54319 c -0.10288,-0.0428 -0.65008,-0.10746 -1.21596,-0.14376 -3.74119,-0.23976 -8.939564,-1.34349 -12.580423,-2.67112 -3.734634,-1.36183 -6.72494,-2.88407 -9.727614,-4.9519 -1.477887,-1.01778 -3.414019,-2.57206 -3.414019,-2.74068 0,-0.058 1.894078,-2.32271 4.209064,-5.03238 3.791375,-4.43777 4.227628,-4.91671 4.396134,-4.82632 0.10288,0.0551 0.58693,0.39053 1.075649,0.74518 1.355961,0.984 2.510621,1.67226 4.255832,2.53682 2.627447,1.30159 5.147137,2.15916 8.137517,2.76954 2.86774,0.58534 3.82596,0.67011 7.52956,0.66603 3.58509,-0.003 4.682,-0.10281 7.3944,-0.66666 11.82951,-2.45895 20.11753,-10.15827 22.0698,-20.50216 0.51001,-2.70226 0.49029,-1.95529 0.55513,-21.02425 l 0.0602,-17.70156 0.2128,-0.71609 c 0.35612,-1.1984 0.81008,-1.97014 1.69391,-2.87965 0.64071,-0.6593 0.95418,-0.89922 1.59275,-1.219 1.54968,-0.77608 0.0374,-0.70872 17.72484,-0.78935 18.25264,-0.0832 19.27853,-0.10145 20.95179,-0.37117 4.31039,-0.69494 8.02065,-2.32175 11.31769,-4.96242 1.06426,-0.85239 3.40106,-3.32357 4.26981,-4.51533 1.30879,-1.79542 2.34013,-3.57585 3.20732,-5.53685 2.24978,-5.08753 3.30299,-10.97087 3.03523,-16.95514 -0.34435,-7.6957 -2.81306,-14.74428 -6.99116,-19.9609 -1.08433,-1.35388 -2.98777,-3.23817 -4.2378,-4.19517 -0.89008,-0.68143 -1.39447,-1.01825 -3.13301,-2.09212 l -0.48237,-0.29796 4.29464,-5.02341 c 2.36206,-2.76288 4.33655,-5.03781 4.38775,-5.05541 0.14043,-0.0483 1.14148,0.55062 2.2627,1.35369 3.55093,2.54341 6.65582,5.76401 9.18545,9.52774 1.50398,2.23775 3.42961,5.93645 4.40609,8.46315 2.23236,5.7764 3.41333,11.94688 3.574,18.67402 0.0256,1.07523 9.4e-4,2.37484 -0.057,2.96622 -0.0564,0.57888 -0.14681,1.61226 -0.20084,2.29641 -0.62617,7.9284 -3.2989,16.02963 -7.32373,22.19874 -3.18259,4.87812 -7.11566,8.73609 -11.80104,11.57573 -3.62492,2.19694 -8.35576,3.91537 -12.76749,4.63771 -3.23054,0.52893 -2.80554,0.51538 -18.00546,0.57322 l -14.12373,0.0538 -0.0564,14.49615 c -0.0383,9.82894 -0.0906,14.78881 -0.16225,15.40516 -0.0581,0.49995 -0.17221,1.40415 -0.25345,2.00937 -2.01322,14.99901 -11.70871,26.38539 -26.75306,31.4188 -3.55242,1.18854 -7.24026,1.93377 -11.73197,2.3708 -1.3832,0.13458 -6.51202,0.20457 -6.78126,0.0926 z m 1.667,-34.27428 c -1.98625,-0.33924 -4.14109,-2.11203 -4.70977,-3.87474 l -0.10237,-0.31742 6.10902,-7.14993 6.10902,-7.14995 0.0577,1.85911 c 0.0317,1.02253 0.0633,3.85236 0.0701,6.28856 0.0143,5.11488 -0.0103,5.35345 -0.70636,6.81137 -0.35476,0.74315 -0.57003,1.04715 -1.19199,1.68339 -0.62194,0.63626 -0.91911,0.85645 -1.64556,1.21938 -1.32413,0.6615 -2.6139,0.86523 -3.98981,0.63023 z"
       id="path97" />
    <path
       style="fill:#3ba674;stroke-width:0.0946033"
       d="m 108.20132,250.55743 c 0.65591,-0.0165 1.72923,-0.0165 2.38514,0 0.65591,0.0164 0.11925,0.03 -1.19257,0.03 -1.31182,0 -1.84848,-0.0135 -1.19257,-0.03 z m -2.68912,-0.22176 c -2.19004,-0.18333 -5.25026,-0.64715 -5.2232,-0.79165 0.008,-0.0432 2.40264,-2.87404 5.32118,-6.29049 l 5.30643,-6.21174 0.43121,-9.7e-4 c 0.23717,-9.6e-4 0.9985,-0.0658 1.69187,-0.14499 6.50542,-0.7434 12.21703,-2.96509 16.7607,-6.51954 1.25,-0.97787 3.18006,-2.89373 4.12926,-4.09889 3.2326,-4.10434 4.98913,-8.89165 5.30134,-14.44845 0.0503,-0.89464 0.0921,-3.06994 0.0927,-4.83395 l 0.001,-3.20736 6.35014,-7.43419 6.35012,-7.43416 0.0648,2.02995 c 0.0356,1.11647 0.0482,6.80936 0.0278,12.65088 -0.0401,11.51112 -0.0257,11.15874 -0.58628,14.46374 -1.35828,8.00924 -4.81461,14.77982 -10.34746,20.26962 -5.85754,5.81193 -13.86479,9.80171 -22.84363,11.38231 -2.97994,0.52456 -4.45142,0.64533 -8.24504,0.67663 -1.95488,0.0162 -4.01733,-0.008 -4.58322,-0.0569 z m 51.33053,-65.80023 -1.04895,-0.0305 5.53049,-6.47949 c 3.04176,-3.56373 5.53413,-6.4852 5.5386,-6.49214 0.004,-0.006 3.01761,-0.0588 6.69586,-0.11508 6.014,-0.0921 6.80553,-0.12234 7.85693,-0.29947 4.5411,-0.76511 8.36969,-2.486 11.64507,-5.23423 4.80422,-4.03102 8.18607,-10.15367 9.63358,-17.44105 0.55651,-2.80169 0.64971,-3.89081 0.65145,-7.61217 10e-4,-3.03691 -0.023,-3.62793 -0.20624,-4.99327 -0.22209,-1.65483 -0.55972,-3.49308 -0.86963,-4.73473 l -0.19063,-0.76382 0.35455,-0.42494 c 1.50778,-1.80723 9.15845,-10.74412 9.20213,-10.74923 0.1919,-0.0224 1.74803,3.83696 2.45691,6.09338 1.2917,4.11174 2.26589,9.83744 2.31413,13.60107 0.006,0.51058 0.0317,0.6563 0.0841,0.48844 0.043,-0.13768 0.076,0.55277 0.0777,1.62663 0.002,1.1225 -0.0292,1.78962 -0.0777,1.67448 -0.0532,-0.12676 -0.0827,0.0994 -0.0873,0.66979 -0.003,0.47363 -0.0707,1.57161 -0.14855,2.43994 -1.24102,13.83573 -7.41087,25.59571 -16.92993,32.26911 -5.42222,3.80129 -11.52402,5.93187 -18.55977,6.48055 -1.13229,0.0883 -21.03931,0.11052 -23.92287,0.0267 z"
       id="path95" />
  </g>
</svg>
